<svg xmlns="http://www.w3.org/2000/svg" viewBox="0 0 512 512" role="img" aria-labelledby="title description">
  <title id="title">Sistema de Asistencia</title>
  <desc id="description">Casco de construcción cian con una marca de verificación verde.</desc>
  <defs>
    <linearGradient id="background" x1="70" y1="42" x2="442" y2="470" gradientUnits="userSpaceOnUse">
      <stop stop-color="#111c31"/>
      <stop offset="1" stop-color="#0b1324"/>
    </linearGradient>
    <linearGradient id="helmet" x1="104" y1="146" x2="411" y2="370" gradientUnits="userSpaceOnUse">
      <stop stop-color="#22d3ee"/>
      <stop offset="1" stop-color="#06b6d4"/>
    </linearGradient>
    <linearGradient id="check" x1="191" y1="278" x2="334" y2="227" gradientUnits="userSpaceOnUse">
      <stop stop-color="#2dd4bf"/>
      <stop offset="1" stop-color="#86ef78"/>
    </linearGradient>
    <filter id="cyanGlow" x="-20%" y="-24%" width="140%" height="148%">
      <feGaussianBlur in="SourceGraphic" stdDeviation="7" result="blur"/>
      <feMerge>
        <feMergeNode in="blur"/>
        <feMergeNode in="SourceGraphic"/>
      </feMerge>
    </filter>
    <filter id="greenGlow" x="-25%" y="-30%" width="150%" height="160%">
      <feGaussianBlur in="SourceGraphic" stdDeviation="8" result="blur"/>
      <feMerge>
        <feMergeNode in="blur"/>
        <feMergeNode in="SourceGraphic"/>
      </feMerge>
    </filter>
  </defs>

  <rect width="512" height="512" rx="98" fill="url(#background)"/>

  <path
    fill="url(#helmet)"
    fill-rule="evenodd"
    filter="url(#cyanGlow)"
    d="M215.5 133.935C206.273 136.181 199 144.322 199 152.404c0 2.14-1.294 3.082-9.707 7.067-27.829 13.183-53.377 37.141-68.172 63.932-10.581 19.16-16.327 39.153-18.341 63.813-1.185 14.513-1.238 14.731-3.86 15.817-3.597 1.49-8.251 6.515-11.083 11.967-2.113 4.068-2.337 5.799-2.337 18.044 0 15.362.752 17.517 7.265 20.831 11.156 5.676 46.956 14.621 74.235 18.548 60.661 8.733 127.529 8.193 187-1.51 37.415-6.104 66.336-14.915 70.667-21.529 1.55-2.368 1.832-4.889 1.827-16.342-.006-12.748-.163-13.84-2.686-18.632-2.743-5.21-8.172-10.756-11.593-11.842-1.674-.531-2-1.965-2.571-11.338-.883-14.466-2.956-26.655-6.647-39.08-11.826-39.802-41.383-73.953-80.247-92.715-8.699-4.2-9.75-4.993-9.75-7.359 0-3.932-4.015-11.075-8.01-14.248-2.077-1.651-5.704-3.205-8.886-3.808-6.092-1.156-75.905-1.229-80.604-.085m.723 15.622c-1.509 1.056-2.223 2.583-2.223 4.752 0 1.758 2.7 14.406 6 28.108 3.3 13.702 6 26.381 6 28.176 0 5.703-5.832 9.058-10.466 6.021-2.739-1.795-2.937-2.391-8.575-25.863-5.507-22.928-4.422-21.027-10.515-18.417-26.246 11.244-51.111 35.197-64.843 62.466-9.586 19.034-13.465 34.94-14.306 58.648-.565 15.946-.737 17.084-2.902 19.25-1.266 1.266-3.493 2.302-4.948 2.302-1.68 0-3.898 1.253-6.082 3.437l-3.437 3.437.287 9.784.287 9.784 5 1.855c30.888 11.46 81.566 18.991 137 20.359 58.681 1.449 124.116-6.416 161-19.35l8-2.806.287-9.813.287-9.813-3.437-3.437c-2.184-2.184-4.402-3.437-6.082-3.437-1.476 0-3.732-1.086-5.1-2.455-2.34-2.339-2.455-3.032-2.461-14.75-.011-23.372-4.226-41.528-14.461-62.295-11.001-22.322-25.759-39.06-46.533-52.774-8.221-5.427-21.725-12.726-23.545-12.726-.147 0-2.664 9.787-5.594 21.75-5.504 22.477-7.183 26.25-11.681 26.25-3.382 0-7.18-3.833-7.18-7.247 0-1.706 2.215-12.361 4.922-23.677 8.329-34.819 8.565-37.177 3.839-38.443-1.244-.333-18.923-.612-39.288-.619-31.91-.012-37.335.201-39.25 1.543"/>

  <path
    fill="url(#check)"
    filter="url(#greenGlow)"
    d="M318.5 227.152c-1.1.6-18.214 17.236-38.032 36.97C260.651 283.855 243.817 300 243.059 300c-.758 0-9.109-7.65-18.559-17-16.594-16.418-17.321-17-21.264-17-7.348 0-12.826 7.242-10.712 14.163.779 2.55 28.864 31.479 39.752 40.946 7.355 6.395 11.009 7.382 16.524 4.461 1.485-.787 21.263-20.037 43.95-42.778L334 241.444v-4.322c0-8.051-8.727-13.665-15.5-9.97"/>
</svg>
